<svg width="475" height="396" viewBox="0 0 475 396" fill="none" xmlns="http://www.w3.org/2000/svg">
<rect x="0.5" y="0.5" width="79" height="79" stroke="#D0E1FF"/>
<rect x="79.5" y="0.5" width="79" height="79" stroke="#D0E1FF"/>
<rect x="158.5" y="0.5" width="79" height="79" stroke="#D0E1FF"/>
<rect x="237.5" y="0.5" width="79" height="79" stroke="#D0E1FF"/>
<rect x="316.5" y="0.5" width="79" height="79" stroke="#D0E1FF"/>
<rect x="395.5" y="0.5" width="79" height="79" stroke="#D0E1FF"/>
<rect x="0.5" y="79.5" width="79" height="79" stroke="#D0E1FF"/>
<rect x="79.5" y="79.5" width="79" height="79" fill="#F3F8FF" stroke="#D0E1FF"/>
<rect x="158.5" y="79.5" width="79" height="79" stroke="#D0E1FF"/>
<rect x="237.5" y="79.5" width="79" height="79" stroke="#D0E1FF"/>
<rect x="316.5" y="79.5" width="79" height="79" stroke="#D0E1FF"/>
<rect x="395.5" y="79.5" width="79" height="79" stroke="#D0E1FF"/>
<rect x="0.5" y="158.5" width="79" height="79" stroke="#D0E1FF"/>
<rect x="79.5" y="158.5" width="79" height="79" stroke="#D0E1FF"/>
<rect x="158.5" y="158.5" width="79" height="79" stroke="#D0E1FF"/>
<rect x="237.5" y="158.5" width="79" height="79" stroke="#D0E1FF"/>
<rect x="316.5" y="158.5" width="79" height="79" stroke="#D0E1FF"/>
<rect x="395.5" y="158.5" width="79" height="79" stroke="#D0E1FF"/>
<rect x="0.5" y="237.5" width="79" height="79" stroke="#D0E1FF"/>
<rect x="79.5" y="237.5" width="79" height="79" stroke="#D0E1FF"/>
<rect x="158.5" y="237.5" width="79" height="79" stroke="#D0E1FF"/>
<rect x="237.5" y="237.5" width="79" height="79" stroke="#D0E1FF"/>
<rect x="316.5" y="237.5" width="79" height="79" fill="#F3F8FF" stroke="#D0E1FF"/>
<rect x="395.5" y="237.5" width="79" height="79" stroke="#D0E1FF"/>
<rect x="0.5" y="316.5" width="79" height="79" stroke="#D0E1FF"/>
<rect x="79.5" y="316.5" width="79" height="79" stroke="#D0E1FF"/>
<rect x="158.5" y="316.5" width="79" height="79" stroke="#D0E1FF"/>
<rect x="237.5" y="316.5" width="79" height="79" stroke="#D0E1FF"/>
<rect x="316.5" y="316.5" width="79" height="79" stroke="#D0E1FF"/>
<rect x="395.5" y="316.5" width="79" height="79" stroke="#D0E1FF"/>
</svg>
