<svg width="1280" height="557" viewBox="0 0 1280 557" fill="none" xmlns="http://www.w3.org/2000/svg">
<mask id="mask0_1_47" style="mask-type:alpha" maskUnits="userSpaceOnUse" x="679" y="0" width="636" height="557">
<rect x="679" width="636" height="557" fill="url(#paint0_radial_1_47)"/>
</mask>
<g mask="url(#mask0_1_47)">
<rect x="759.5" y="75.5" width="79" height="79" stroke="#D0E1FF"/>
<rect x="838.5" y="75.5" width="79" height="79" stroke="#D0E1FF"/>
<rect x="917.5" y="75.5" width="79" height="79" stroke="#D0E1FF"/>
<rect x="996.5" y="75.5" width="79" height="79" stroke="#D0E1FF"/>
<rect x="1075.5" y="75.5" width="79" height="79" stroke="#D0E1FF"/>
<rect x="1154.5" y="75.5" width="79" height="79" stroke="#D0E1FF"/>
<rect x="759.5" y="154.5" width="79" height="79" stroke="#D0E1FF"/>
<rect x="838.5" y="154.5" width="79" height="79" stroke="#D0E1FF"/>
<rect x="917.5" y="154.5" width="79" height="79" stroke="#D0E1FF"/>
<rect x="996.5" y="154.5" width="79" height="79" stroke="#D0E1FF"/>
<rect x="1075.5" y="154.5" width="79" height="79" stroke="#D0E1FF"/>
<rect x="1154.5" y="154.5" width="79" height="79" stroke="#D0E1FF"/>
<rect x="759.5" y="233.5" width="79" height="79" stroke="#D0E1FF"/>
<rect x="838.5" y="233.5" width="79" height="79" stroke="#D0E1FF"/>
<rect x="917.5" y="233.5" width="79" height="79" stroke="#D0E1FF"/>
<rect x="996.5" y="233.5" width="79" height="79" stroke="#D0E1FF"/>
<rect x="1075.5" y="233.5" width="79" height="79" fill="#F3F8FF" stroke="#D0E1FF"/>
<rect x="1154.5" y="233.5" width="79" height="79" stroke="#D0E1FF"/>
<rect x="759.5" y="312.5" width="79" height="79" stroke="#D0E1FF"/>
<rect x="838.5" y="312.5" width="79" height="79" stroke="#D0E1FF"/>
<rect x="917.5" y="312.5" width="79" height="79" stroke="#D0E1FF"/>
<rect x="996.5" y="312.5" width="79" height="79" stroke="#D0E1FF"/>
<rect x="1075.5" y="312.5" width="79" height="79" stroke="#D0E1FF"/>
<rect x="1154.5" y="312.5" width="79" height="79" stroke="#D0E1FF"/>
<rect x="759.5" y="391.5" width="79" height="79" stroke="#D0E1FF"/>
<rect x="838.5" y="391.5" width="79" height="79" stroke="#D0E1FF"/>
<rect x="917.5" y="391.5" width="79" height="79" stroke="#D0E1FF"/>
<rect x="996.5" y="391.5" width="79" height="79" stroke="#D0E1FF"/>
<rect x="1075.5" y="391.5" width="79" height="79" stroke="#D0E1FF"/>
<rect x="1154.5" y="391.5" width="79" height="79" stroke="#D0E1FF"/>
</g>
<mask id="mask1_1_47" style="mask-type:alpha" maskUnits="userSpaceOnUse" x="-20" y="0" width="636" height="557">
<rect width="636" height="557" transform="matrix(-1 0 0 1 616 0)" fill="url(#paint1_radial_1_47)"/>
</mask>
<g mask="url(#mask1_1_47)">
<rect x="-0.5" y="0.5" width="79" height="79" transform="matrix(-1 0 0 1 535 75)" stroke="#D0E1FF"/>
<rect x="-0.5" y="0.5" width="79" height="79" transform="matrix(-1 0 0 1 456 75)" stroke="#D0E1FF"/>
<rect x="-0.5" y="0.5" width="79" height="79" transform="matrix(-1 0 0 1 377 75)" stroke="#D0E1FF"/>
<rect x="-0.5" y="0.5" width="79" height="79" transform="matrix(-1 0 0 1 298 75)" stroke="#D0E1FF"/>
<rect x="-0.5" y="0.5" width="79" height="79" transform="matrix(-1 0 0 1 219 75)" stroke="#D0E1FF"/>
<rect x="-0.5" y="0.5" width="79" height="79" transform="matrix(-1 0 0 1 140 75)" stroke="#D0E1FF"/>
<rect x="-0.5" y="0.5" width="79" height="79" transform="matrix(-1 0 0 1 535 154)" stroke="#D0E1FF"/>
<rect x="-0.5" y="0.5" width="79" height="79" transform="matrix(-1 0 0 1 456 154)" stroke="#D0E1FF"/>
<rect x="-0.5" y="0.5" width="79" height="79" transform="matrix(-1 0 0 1 377 154)" stroke="#D0E1FF"/>
<rect x="-0.5" y="0.5" width="79" height="79" transform="matrix(-1 0 0 1 298 154)" stroke="#D0E1FF"/>
<rect x="-0.5" y="0.5" width="79" height="79" transform="matrix(-1 0 0 1 219 154)" stroke="#D0E1FF"/>
<rect x="-0.5" y="0.5" width="79" height="79" transform="matrix(-1 0 0 1 140 154)" stroke="#D0E1FF"/>
<rect x="-0.5" y="0.5" width="79" height="79" transform="matrix(-1 0 0 1 535 233)" stroke="#D0E1FF"/>
<rect x="-0.5" y="0.5" width="79" height="79" transform="matrix(-1 0 0 1 456 233)" stroke="#D0E1FF"/>
<rect x="-0.5" y="0.5" width="79" height="79" transform="matrix(-1 0 0 1 377 233)" stroke="#D0E1FF"/>
<rect x="-0.5" y="0.5" width="79" height="79" transform="matrix(-1 0 0 1 298 233)" stroke="#D0E1FF"/>
<rect x="-0.5" y="0.5" width="79" height="79" transform="matrix(-1 0 0 1 219 233)" fill="#F3F8FF" stroke="#D0E1FF"/>
<rect x="-0.5" y="0.5" width="79" height="79" transform="matrix(-1 0 0 1 140 233)" stroke="#D0E1FF"/>
<rect x="-0.5" y="0.5" width="79" height="79" transform="matrix(-1 0 0 1 535 312)" stroke="#D0E1FF"/>
<rect x="-0.5" y="0.5" width="79" height="79" transform="matrix(-1 0 0 1 456 312)" stroke="#D0E1FF"/>
<rect x="-0.5" y="0.5" width="79" height="79" transform="matrix(-1 0 0 1 377 312)" stroke="#D0E1FF"/>
<rect x="-0.5" y="0.5" width="79" height="79" transform="matrix(-1 0 0 1 298 312)" stroke="#D0E1FF"/>
<rect x="-0.5" y="0.5" width="79" height="79" transform="matrix(-1 0 0 1 219 312)" stroke="#D0E1FF"/>
<rect x="-0.5" y="0.5" width="79" height="79" transform="matrix(-1 0 0 1 140 312)" stroke="#D0E1FF"/>
<rect x="-0.5" y="0.5" width="79" height="79" transform="matrix(-1 0 0 1 535 391)" stroke="#D0E1FF"/>
<rect x="-0.5" y="0.5" width="79" height="79" transform="matrix(-1 0 0 1 456 391)" stroke="#D0E1FF"/>
<rect x="-0.5" y="0.5" width="79" height="79" transform="matrix(-1 0 0 1 377 391)" stroke="#D0E1FF"/>
<rect x="-0.5" y="0.5" width="79" height="79" transform="matrix(-1 0 0 1 298 391)" stroke="#D0E1FF"/>
<rect x="-0.5" y="0.5" width="79" height="79" transform="matrix(-1 0 0 1 219 391)" stroke="#D0E1FF"/>
<rect x="-0.5" y="0.5" width="79" height="79" transform="matrix(-1 0 0 1 140 391)" stroke="#D0E1FF"/>
</g>
<defs>
<radialGradient id="paint0_radial_1_47" cx="0" cy="0" r="1" gradientUnits="userSpaceOnUse" gradientTransform="translate(997 278.5) rotate(90) scale(278.5 318)">
<stop stop-color="#EBF1FC"/>
<stop offset="0.712572" stop-color="#EBF1FC" stop-opacity="0"/>
</radialGradient>
<radialGradient id="paint1_radial_1_47" cx="0" cy="0" r="1" gradientUnits="userSpaceOnUse" gradientTransform="translate(318 278.5) rotate(90) scale(278.5 318)">
<stop stop-color="#EBF1FC"/>
<stop offset="0.712572" stop-color="#EBF1FC" stop-opacity="0"/>
</radialGradient>
</defs>
</svg>
