<svg width="212" height="51" viewBox="0 0 212 51" fill="none" xmlns="http://www.w3.org/2000/svg">
<path d="M26.965 19.4182V22.4229C26.8611 22.2834 26.7542 22.1408 26.6474 22.0102C26.3136 21.59 25.943 21.2005 25.5399 20.8463C25.1019 20.4617 24.6194 20.1308 24.1029 19.8606C22.9764 19.2765 21.7227 18.9807 20.4539 18.9996C20.1225 18.9987 19.7914 19.0175 19.4622 19.056H19.3346C18.1058 19.1988 16.9289 19.6335 15.9024 20.3238C15.3912 20.6706 14.9167 21.0685 14.4861 21.5114C13.6852 22.2975 13.0525 23.2382 12.6263 24.2763C12.2001 25.3145 11.9894 26.4284 12.007 27.5505C11.9963 28.6468 12.1875 29.7358 12.5711 30.763C12.9434 31.736 13.4954 32.6304 14.1981 33.3995C14.2813 33.4915 14.3674 33.5865 14.4564 33.6756C15.2293 34.4841 16.1573 35.1284 17.185 35.5699C18.1995 35.9931 19.2894 36.2062 20.3886 36.1963C21.6361 36.2097 22.8694 35.9311 23.9901 35.3828C25.1418 34.7985 26.1544 33.9732 26.9591 32.963V33.2095H29.0374V19.4182H26.965ZM27.0244 28.7321C26.9191 29.5394 26.6611 30.3193 26.2643 31.0302C25.7072 32.0208 24.8846 32.8363 23.8891 33.3846C22.8952 33.9555 21.7693 34.2564 20.6231 34.2576C19.4932 34.2579 18.3845 33.9499 17.4166 33.3668C16.5914 32.8829 15.8868 32.218 15.356 31.4221C15.3204 31.3716 15.2878 31.3182 15.2521 31.2647C15.1749 31.1489 15.1066 31.0332 15.0384 30.9144C14.4615 29.9086 14.1579 28.7693 14.1579 27.6098C14.1579 26.4504 14.4615 25.3111 15.0384 24.3053C15.4359 23.5851 15.9693 22.9489 16.609 22.4318C16.8582 22.2257 17.1244 22.0409 17.4047 21.8796C18.3805 21.3141 19.4894 21.0189 20.6172 21.0245C20.8607 21.0245 21.0952 21.0393 21.3328 21.0601C22.8164 21.1905 24.2014 21.8577 25.2281 22.9366C26.2184 23.9307 26.8503 25.2258 27.0244 26.6182C27.0737 26.9713 27.0985 27.3275 27.0986 27.6841C27.0983 28.0347 27.0735 28.3849 27.0244 28.7321Z" fill="#3B82F6"/>
<path d="M41.6054 21.5886C41.1987 21.173 40.7533 20.7972 40.2752 20.4663C39.2576 19.7569 38.0828 19.3056 36.8519 19.151H36.7718C36.4085 19.104 36.0425 19.0811 35.6762 19.0827C34.4345 19.0703 33.2069 19.3457 32.0896 19.8873C30.9348 20.4709 29.9215 21.2998 29.1205 22.316V23.8807H27.0155V33.2985H29.1205V32.8591C29.8664 33.9251 30.8478 34.8049 31.9886 35.4303C33.1069 36.0073 34.3497 36.3009 35.6079 36.2854C36.717 36.2945 37.8165 36.0804 38.8412 35.656C39.8646 35.2153 40.7901 34.5754 41.5638 33.7736C41.6588 33.6756 41.7538 33.5806 41.837 33.4767C42.5523 32.707 43.1128 31.8069 43.4878 30.8253C43.8753 29.8296 44.0737 28.7703 44.0727 27.7019C44.0919 26.5696 43.8834 25.445 43.4596 24.3948C43.0357 23.3446 42.4052 22.3904 41.6054 21.5886ZM40.8483 31.2825C40.3074 32.1417 39.5643 32.8553 38.6838 33.3609C37.7011 33.9368 36.5806 34.2354 35.4416 34.2249C34.5848 34.243 33.7336 34.0829 32.9419 33.7548C32.1503 33.4266 31.4354 32.9376 30.8426 32.3187C29.8404 31.3084 29.2058 29.9912 29.0404 28.5777C28.9999 28.2507 28.9791 27.9215 28.978 27.592C28.9789 27.2674 28.9997 26.9432 29.0404 26.6211C29.14 25.787 29.4012 24.9802 29.8093 24.2459C30.3643 23.2483 31.187 22.4256 32.1846 21.8706C33.0908 21.3487 34.1089 21.0514 35.1536 21.0037C35.2546 21.0037 35.3585 21.0037 35.4505 21.0037C36.5722 21.0016 37.6734 21.3044 38.6363 21.8796C38.9349 22.0543 39.2189 22.2529 39.4855 22.4734C40.104 22.9947 40.6222 23.6246 41.0145 24.332C41.5932 25.342 41.8977 26.4859 41.8977 27.6499C41.8977 28.814 41.5932 29.9578 41.0145 30.9678C40.9552 31.0777 40.8898 31.1846 40.8216 31.2885C40.8512 31.2766 40.8483 31.2766 40.8483 31.2825Z" fill="#3B82F6"/>
<path d="M21.4901 24.8753C21.4901 26.3833 20.8911 27.8295 19.8248 28.8958C18.7585 29.962 17.3123 30.5611 15.8044 30.5611H15.647C15.555 30.4245 15.4659 30.282 15.3828 30.1365C14.9023 29.2977 14.6495 28.3479 14.6495 27.3812C14.6495 26.4146 14.9023 25.4647 15.3828 24.6259C15.8431 23.7894 16.5209 23.0928 17.3446 22.6098C18.1683 22.1269 19.1072 21.8756 20.062 21.8825C20.2669 21.8825 20.4628 21.8825 20.6558 21.9122C21.2033 22.8035 21.4921 23.8294 21.4901 24.8753Z" fill="#3B82F6"/>
<path d="M21.3417 21.0601C21.1042 21.0393 20.8696 21.0245 20.6262 21.0245C19.4811 21.016 18.3551 21.3173 17.3673 21.8964C16.3794 22.4755 15.5665 23.3109 15.0146 24.3142C14.4378 25.32 14.1342 26.4593 14.1342 27.6188C14.1342 28.7782 14.4378 29.9175 15.0146 30.9233C15.1126 31.0985 15.2195 31.2677 15.3323 31.431C14.373 31.4074 13.4296 31.1797 12.5652 30.763C12.1816 29.7358 11.9904 28.6468 12.0011 27.5505C11.9831 26.4279 12.1936 25.3134 12.6198 24.2747C13.046 23.236 13.679 22.2949 14.4802 21.5084C15.7933 20.1226 17.5578 19.2509 19.4563 19.0501C20.2155 19.5842 20.8572 20.2683 21.3417 21.0601Z" fill="#3B82F6"/>
<path d="M41.169 27.7731C41.1686 28.7554 40.9117 29.7205 40.4238 30.573C40.374 30.6667 40.3195 30.7579 40.2605 30.8461C38.7576 30.8051 37.3301 30.1794 36.2816 29.102C35.233 28.0246 34.6462 26.5806 34.646 25.0772C34.644 24.0447 34.9221 23.0309 35.4506 22.1438C35.5367 22.1438 35.6228 22.1438 35.7119 22.1438C36.6612 22.1422 37.5931 22.3988 38.4078 22.8861C39.2531 23.3857 39.9484 24.1036 40.4208 24.9644C40.9097 25.8199 41.1676 26.7878 41.169 27.7731Z" fill="#3B82F6"/>
<path d="M44.0727 27.7019C44.0822 28.7633 43.895 29.8173 43.5205 30.8105C42.7328 31.1205 41.8937 31.2786 41.0472 31.2766H40.8631C40.9314 31.1727 40.9967 31.0658 41.0561 30.956C41.6348 29.9459 41.9392 28.8021 41.9392 27.638C41.9392 26.474 41.6348 25.3302 41.0561 24.3201C40.4993 23.3024 39.6789 22.4532 38.6809 21.8618C37.7179 21.2866 36.6168 20.9838 35.4951 20.9859C35.3912 20.9859 35.2873 20.9859 35.1982 20.9859C35.6161 20.2764 36.1593 19.6486 36.8015 19.1332C38.6496 19.359 40.3601 20.2258 41.6351 21.5827C42.4303 22.3876 43.0557 23.3439 43.4745 24.3951C43.8932 25.4462 44.0966 26.5707 44.0727 27.7019Z" fill="#3B82F6"/>
<path d="M27.3183 26.3035C27.3183 26.3035 32.9328 10.0984 39.0312 12.1856C42.5941 13.4 35.501 16.6778 35.501 16.6778C35.501 16.6778 29.7262 18.6017 27.3183 26.3035Z" fill="#3B82F6"/>
<path d="M28.4763 26.4638C28.4763 26.4638 22.8618 10.2587 16.7574 12.3459C13.1945 13.5603 20.2876 16.8381 20.2876 16.8381C20.2876 16.8381 26.0713 18.7621 28.4763 26.4638Z" fill="#3B82F6"/>
<path d="M31.9976 35.4066C29.7412 30.953 29.5215 32.3514 29.0286 32.0872L28.4348 31.7606L27.841 32.0872C26.8463 31.7903 24.3345 33.0759 23.5655 38.7171C23.6487 38.6636 23.6516 38.5508 24.6492 38.3103C24.2098 34.3526 25.9616 33.6251 28.4496 33.1412C30.2934 34.1982 30.7091 35.2551 30.7091 38.3222C30.712 38.3222 32.5588 36.3834 31.9976 35.4066Z" fill="#3B82F6"/>
<path d="M62.7315 19.0745H66.7813V35.2202H62.7315V33.513C62.0459 34.1952 61.2408 34.7456 60.3563 35.137C59.5352 35.4744 58.6549 35.644 57.7673 35.6359C55.683 35.6359 53.8798 34.8273 52.3577 33.2101C50.8355 31.593 50.0745 29.5819 50.0745 27.177C50.0745 24.683 50.8108 22.6403 52.2834 21.0489C52.9545 20.2899 53.7815 19.6847 54.708 19.2748C55.6344 18.8648 56.6385 18.6598 57.6515 18.6736C58.5881 18.6679 59.5158 18.8549 60.3771 19.2229C61.2628 19.6132 62.0636 20.173 62.7345 20.8708L62.7315 19.0745ZM58.4709 22.3968C57.888 22.3848 57.3092 22.4972 56.7732 22.7266C56.2371 22.9559 55.7561 23.297 55.3623 23.727C54.5141 24.6526 54.064 25.8748 54.1094 27.1295C54.0584 28.3976 54.5085 29.6347 55.3623 30.5736C55.7541 31.0084 56.2346 31.3539 56.7714 31.587C57.3082 31.8201 57.8888 31.9352 58.4739 31.9245C59.0655 31.9414 59.654 31.8317 60.1998 31.6028C60.7456 31.374 61.2363 31.0312 61.6389 30.5974C62.4782 29.7126 62.8978 28.5527 62.8978 27.1176C62.8978 25.7123 62.4782 24.5742 61.6389 23.7032C61.2314 23.2763 60.739 22.9394 60.1933 22.7144C59.6477 22.4894 59.061 22.3812 58.4709 22.3968Z" fill="#3B82F6"/>
<path d="M70.8786 19.4901H74.9313V21.1439C75.6751 20.4796 76.5175 19.9348 77.4283 19.5287C78.1545 19.2297 78.9321 19.0754 79.7174 19.0745C80.4751 19.0603 81.2276 19.2019 81.9283 19.4904C82.629 19.779 83.263 20.2084 83.791 20.752C84.7292 21.6981 85.1983 23.1025 85.1983 24.9651V35.6358H81.193V28.5636C81.193 26.6357 81.1069 25.356 80.9347 24.7246C80.8015 24.1564 80.4829 23.6487 80.0292 23.2816C79.5709 22.9392 79.0095 22.7632 78.4378 22.7828C77.6545 22.7702 76.8975 23.0655 76.3297 23.6052C75.7038 24.2252 75.2777 25.0183 75.1065 25.8825C74.9907 26.3872 74.9313 27.4769 74.9313 29.1485V35.6269H70.8786V19.4901Z" fill="#3B82F6"/>
<path d="M89.6074 16.9011H93.6631V21.7318H96.068V25.2174H93.6631V35.6359H89.6074V25.2174H87.529V21.7318H89.6074V16.9011Z" fill="#3B82F6"/>
<path d="M103.14 16.5775V20.8559C103.82 20.1601 104.626 19.6008 105.516 19.2081C106.379 18.8399 107.309 18.653 108.247 18.6588C109.261 18.6447 110.265 18.8496 111.192 19.2596C112.119 19.6695 112.947 20.2748 113.618 21.034C115.093 22.6175 115.83 24.6602 115.83 27.1622C115.83 29.5671 115.068 31.5781 113.544 33.1953C112.02 34.8124 110.215 35.621 108.128 35.621C107.242 35.635 106.363 35.4735 105.539 35.1459C104.65 34.756 103.839 34.2055 103.149 33.5219V35.2291H99.1202V16.5775H103.14ZM107.401 22.3968C106.81 22.3807 106.221 22.4886 105.674 22.7136C105.127 22.9386 104.633 23.2757 104.224 23.7032C103.385 24.5722 102.964 25.7103 102.962 27.1176C102.96 28.525 103.381 29.6849 104.224 30.5974C104.63 31.0304 105.123 31.3726 105.67 31.6013C106.218 31.8301 106.808 31.9402 107.401 31.9245C107.988 31.9353 108.57 31.8203 109.109 31.5873C109.648 31.3543 110.13 31.0087 110.524 30.5736C111.385 29.6377 111.84 28.3998 111.792 27.1295C111.842 25.8749 111.395 24.6513 110.548 23.724C110.148 23.2916 109.661 22.9495 109.118 22.7206C108.575 22.4918 107.99 22.3814 107.401 22.3968Z" fill="#3B4350"/>
<path d="M119.17 19.0745H123.265V26.8504C123.265 28.3646 123.364 29.4157 123.561 30.0036C123.743 30.5559 124.096 31.0362 124.568 31.3753C125.069 31.7141 125.665 31.8856 126.269 31.8652C126.878 31.8838 127.478 31.716 127.988 31.3842C128.48 31.035 128.847 30.5377 129.036 29.965C129.205 29.5018 129.289 28.5121 129.289 26.9959V19.0745H133.342V25.9033C133.342 28.7239 133.119 30.6528 132.673 31.69C132.19 32.8855 131.35 33.9033 130.269 34.6056C129.212 35.2845 127.867 35.624 126.234 35.624C124.452 35.624 123.02 35.2281 121.937 34.4363C120.825 33.6162 120.013 32.4529 119.627 31.1259C119.313 30.1461 119.155 28.3646 119.155 25.7816L119.17 19.0745Z" fill="#3B4350"/>
<path d="M138.662 15.0811C139.003 15.0772 139.341 15.1438 139.656 15.2766C139.97 15.4094 140.253 15.6057 140.488 15.853C140.735 16.0968 140.931 16.3884 141.062 16.7099C141.193 17.0315 141.257 17.3763 141.251 17.7235C141.257 18.0664 141.193 18.4068 141.063 18.7242C140.934 19.0416 140.741 19.3295 140.497 19.5703C140.265 19.8156 139.985 20.0103 139.674 20.1421C139.364 20.2739 139.029 20.34 138.692 20.3363C138.347 20.3411 138.005 20.2742 137.688 20.1398C137.37 20.0054 137.084 19.8064 136.848 19.5554C136.601 19.3075 136.406 19.0122 136.275 18.6873C136.145 18.3623 136.081 18.0143 136.088 17.6642C136.087 16.9804 136.358 16.3243 136.84 15.8399C137.323 15.3556 137.978 15.0827 138.662 15.0811ZM136.637 21.7318H140.687V35.6358H136.637V21.7318Z" fill="#3B4350"/>
<path d="M144.265 16.9932H148.315V35.6359H144.265V16.9932Z" fill="#3B4350"/>
<path d="M163.911 15.8293H167.964V35.2202H163.911V33.513C163.225 34.1952 162.42 34.7456 161.536 35.137C160.716 35.4744 159.836 35.644 158.95 35.6359C156.865 35.6359 155.062 34.8273 153.54 33.2101C152.018 31.593 151.259 29.5819 151.263 27.177C151.263 24.683 151.999 22.6403 153.472 21.0489C154.142 20.29 154.969 19.6848 155.895 19.2749C156.821 18.8649 157.824 18.6598 158.837 18.6737C159.774 18.6681 160.703 18.855 161.565 19.2229C162.45 19.6136 163.25 20.1733 163.92 20.8708L163.911 15.8293ZM159.653 22.3968C159.068 22.3827 158.487 22.4941 157.949 22.7235C157.411 22.953 156.928 23.2952 156.533 23.727C155.726 24.6863 155.285 25.9006 155.289 27.1541C155.293 28.4076 155.741 29.6192 156.554 30.5736C156.946 31.0084 157.427 31.3541 157.964 31.5871C158.502 31.8201 159.083 31.9352 159.668 31.9245C160.261 31.9415 160.851 31.8319 161.398 31.6031C161.945 31.3743 162.438 31.0314 162.842 30.5974C163.679 29.7126 164.098 28.5527 164.098 27.1176C164.098 25.7123 163.679 24.5742 162.842 23.7032C162.432 23.2736 161.936 22.9352 161.387 22.7102C160.838 22.4851 160.247 22.3783 159.653 22.3968Z" fill="#3B4350"/>
<path d="M188.236 28.3171H175.22C175.365 29.3848 175.901 30.3606 176.725 31.0546C177.614 31.7543 178.722 32.1144 179.852 32.07C180.575 32.0805 181.294 31.9452 181.964 31.6723C182.634 31.3994 183.243 30.9945 183.753 30.4816L187.168 32.0849C186.394 33.2233 185.341 34.1435 184.109 34.757C182.785 35.3655 181.339 35.6631 179.882 35.6269C177.346 35.6269 175.282 34.8283 173.691 33.2309C172.1 31.6336 171.308 29.6324 171.316 27.2275C171.316 24.7632 172.108 22.7175 173.691 21.0905C174.463 20.2911 175.392 19.6612 176.421 19.241C177.449 18.8208 178.554 18.6195 179.665 18.6499C182.206 18.6499 184.274 19.4634 185.867 21.0905C187.461 22.7175 188.257 24.8671 188.257 27.5392L188.236 28.3171ZM184.184 25.1254C183.922 24.2339 183.364 23.4586 182.601 22.9283C181.801 22.3604 180.839 22.0638 179.858 22.0821C178.791 22.0638 177.747 22.3977 176.889 23.0322C176.354 23.4301 175.858 24.1248 175.404 25.1106L184.184 25.1254Z" fill="#3B4350"/>
<path d="M190.564 19.4902H194.038V21.521C194.355 20.7882 194.869 20.1573 195.522 19.698C196.127 19.2881 196.841 19.0707 197.571 19.0745C198.144 19.0857 198.707 19.2279 199.216 19.4902L197.969 22.9729C197.61 22.7683 197.211 22.6466 196.799 22.6166C196.176 22.6166 195.648 23.0025 195.217 23.7745C194.785 24.5465 194.57 26.0607 194.572 28.3171V35.6359H190.564V19.4902Z" fill="#3B4350"/>
</svg>
