<svg width="27" height="32" viewBox="0 0 27 32" fill="none" xmlns="http://www.w3.org/2000/svg">
<path d="M17.5876 14.8442L7.85417 10.7598C7.54466 10.63 7.34328 10.3271 7.34328 9.99141V8.5M17.5876 14.8442V8.5M17.5876 14.8442L26 11.2273M17.5876 8.5L26 5.09091M17.5876 8.5L7.34328 4.40909M26 5.09091V11.2273M26 5.09091L17.893 1.1485C17.6972 1.0533 17.472 1.03848 17.2654 1.10722L7.34328 4.40909M26 11.2273L13.3134 16.6818M26 11.2273V24.6691C26 24.9953 25.8097 25.2915 25.5129 25.427L13.3134 31M7.34328 4.40909V8.5M7.34328 8.5L1 11.2273M1 11.2273V24.6757C1 24.9985 1.1864 25.2923 1.47846 25.4297L13.3134 31M1 11.2273L13.3134 16.6818M13.3134 31V16.6818" stroke="#3B82F6" stroke-width="1.66667" stroke-linecap="round"/>
</svg>
